<svg style="height: 512px; width: 512px;" xmlns="http://www.w3.org/2000/svg" viewBox="0 0 512 512"><defs><clipPath id="icon-bg"><circle cx="256" cy="256" r="256" fill="url(#delapouite-transform-gradient-0)"></circle></clipPath><linearGradient id="delapouite-transform-gradient-0"><stop offset="0%" stop-color="#ffd083" stop-opacity="1"></stop><stop offset="100%" stop-color="#846c23" stop-opacity="1"></stop></linearGradient></defs><circle cx="256" cy="256" r="256" fill="url(#delapouite-transform-gradient-0)"></circle><g class="" style="" transform="translate(0,0)"><path d="M128 32a96 96 0 0 0-96 96 96 96 0 0 0 96 96 96 96 0 0 0 30.285-4.986L140.29 201.02l64.353-64.352 6.363-6.363 11.86 11.86A96 96 0 0 0 224 128a96 96 0 0 0-96-96zm83.006 123.76-45.26 45.26L252.73 288l-23.468 23.467 115.24 23.047-23.05-115.24-23.466 23.466-86.98-86.98zM353.556 288l13.89 69.46L288 341.57V480h192V288H353.555z" fill="#fff" fill-opacity="1" clip-path="url(#icon-bg)"></path></g></svg>